<?xml version="1.0" encoding="utf-8"?>
<!-- Generator: Adobe Illustrator 15.0.0, SVG Export Plug-In  -->
<!DOCTYPE svg PUBLIC "-//W3C//DTD SVG 1.1//EN" "http://www.w3.org/Graphics/SVG/1.1/DTD/svg11.dtd" [
	<!ENTITY ns_flows "http://ns.adobe.com/Flows/1.0/">
]>
<svg version="1.1"
	 xmlns="http://www.w3.org/2000/svg" xmlns:xlink="http://www.w3.org/1999/xlink" xmlns:a="http://ns.adobe.com/AdobeSVGViewerExtensions/3.0/"
	 x="0px" y="0px" width="24px" height="24px" viewBox="0 -2.99 24 24" overflow="visible" enable-background="new 0 -2.99 24 24"
	 xml:space="preserve">
<defs>
</defs>
<path fill="#FFFFFF" d="M21.652,0.221c-0.293-0.295-0.771-0.295-1.062,0L9.41,11.35c-0.293,0.297-0.771,0.297-1.062,0L3.449,6.361
	C3.304,6.213,3.114,6.14,2.923,6.139C2.73,6.138,2.534,6.211,2.387,6.361L0.222,8.307C0.078,8.455,0,8.64,0,8.833
	C0,9.027,0.078,9.23,0.223,9.377l4.94,5.184c0.292,0.297,0.771,0.776,1.062,1.07l2.124,2.141c0.292,0.293,0.769,0.293,1.062,0
	l14.366-14.34c0.293-0.294,0.293-0.777,0-1.071L21.652,0.221z"/>
</svg>
